<mxfile host="app.diagrams.net" agent="Mozilla/5.0 (Windows NT 10.0; Win64; x64) AppleWebKit/537.36 (KHTML, like Gecko) Chrome/131.0.0.0 Safari/537.36 Edg/131.0.0.0" version="25.0.3">
  <diagram name="Page-1" id="LW67_78CNY10xWzyDulN">
    <mxGraphModel dx="847" dy="372" grid="1" gridSize="10" guides="1" tooltips="1" connect="1" arrows="1" fold="1" page="1" pageScale="1" pageWidth="850" pageHeight="1100" math="1" shadow="0">
      <root>
        <mxCell id="0" />
        <mxCell id="1" parent="0" />
        <mxCell id="1B5wOAiUGvlLQEjb0I8J-1" value="" style="ellipse;whiteSpace=wrap;html=1;" vertex="1" parent="1">
          <mxGeometry x="120" y="80" width="20" height="20" as="geometry" />
        </mxCell>
        <mxCell id="1B5wOAiUGvlLQEjb0I8J-2" value="" style="ellipse;whiteSpace=wrap;html=1;" vertex="1" parent="1">
          <mxGeometry x="160" y="80" width="20" height="20" as="geometry" />
        </mxCell>
        <mxCell id="1B5wOAiUGvlLQEjb0I8J-3" value="" style="ellipse;whiteSpace=wrap;html=1;" vertex="1" parent="1">
          <mxGeometry x="200" y="80" width="20" height="20" as="geometry" />
        </mxCell>
        <mxCell id="1B5wOAiUGvlLQEjb0I8J-4" value="" style="ellipse;whiteSpace=wrap;html=1;" vertex="1" parent="1">
          <mxGeometry x="240" y="80" width="20" height="20" as="geometry" />
        </mxCell>
        <mxCell id="1B5wOAiUGvlLQEjb0I8J-5" value="" style="ellipse;whiteSpace=wrap;html=1;" vertex="1" parent="1">
          <mxGeometry x="280" y="80" width="20" height="20" as="geometry" />
        </mxCell>
        <mxCell id="1B5wOAiUGvlLQEjb0I8J-6" value="" style="ellipse;whiteSpace=wrap;html=1;" vertex="1" parent="1">
          <mxGeometry x="320" y="80" width="20" height="20" as="geometry" />
        </mxCell>
        <mxCell id="1B5wOAiUGvlLQEjb0I8J-7" value="" style="ellipse;whiteSpace=wrap;html=1;" vertex="1" parent="1">
          <mxGeometry x="360" y="80" width="20" height="20" as="geometry" />
        </mxCell>
        <mxCell id="1B5wOAiUGvlLQEjb0I8J-8" value="" style="ellipse;whiteSpace=wrap;html=1;" vertex="1" parent="1">
          <mxGeometry x="400" y="80" width="20" height="20" as="geometry" />
        </mxCell>
        <mxCell id="1B5wOAiUGvlLQEjb0I8J-9" value="" style="ellipse;whiteSpace=wrap;html=1;" vertex="1" parent="1">
          <mxGeometry x="440" y="80" width="20" height="20" as="geometry" />
        </mxCell>
        <mxCell id="1B5wOAiUGvlLQEjb0I8J-10" value="" style="ellipse;whiteSpace=wrap;html=1;" vertex="1" parent="1">
          <mxGeometry x="480" y="80" width="20" height="20" as="geometry" />
        </mxCell>
        <mxCell id="1B5wOAiUGvlLQEjb0I8J-11" value="" style="ellipse;whiteSpace=wrap;html=1;" vertex="1" parent="1">
          <mxGeometry x="520" y="80" width="20" height="20" as="geometry" />
        </mxCell>
        <mxCell id="1B5wOAiUGvlLQEjb0I8J-12" value="" style="ellipse;whiteSpace=wrap;html=1;" vertex="1" parent="1">
          <mxGeometry x="560" y="80" width="20" height="20" as="geometry" />
        </mxCell>
        <mxCell id="1B5wOAiUGvlLQEjb0I8J-13" value="" style="ellipse;whiteSpace=wrap;html=1;" vertex="1" parent="1">
          <mxGeometry x="600" y="80" width="20" height="20" as="geometry" />
        </mxCell>
        <mxCell id="1B5wOAiUGvlLQEjb0I8J-14" value="" style="ellipse;whiteSpace=wrap;html=1;" vertex="1" parent="1">
          <mxGeometry x="640" y="80" width="20" height="20" as="geometry" />
        </mxCell>
        <mxCell id="1B5wOAiUGvlLQEjb0I8J-15" value="" style="ellipse;whiteSpace=wrap;html=1;" vertex="1" parent="1">
          <mxGeometry x="680" y="80" width="20" height="20" as="geometry" />
        </mxCell>
        <mxCell id="1B5wOAiUGvlLQEjb0I8J-22" value="" style="group" vertex="1" connectable="0" parent="1">
          <mxGeometry x="280" y="200" width="20" height="20" as="geometry" />
        </mxCell>
        <mxCell id="1B5wOAiUGvlLQEjb0I8J-16" value="" style="ellipse;whiteSpace=wrap;html=1;" vertex="1" parent="1B5wOAiUGvlLQEjb0I8J-22">
          <mxGeometry width="20" height="20" as="geometry" />
        </mxCell>
        <mxCell id="1B5wOAiUGvlLQEjb0I8J-17" value="" style="endArrow=none;html=1;rounded=0;entryX=0.5;entryY=0;entryDx=0;entryDy=0;exitX=0.5;exitY=1;exitDx=0;exitDy=0;" edge="1" parent="1B5wOAiUGvlLQEjb0I8J-22" source="1B5wOAiUGvlLQEjb0I8J-16" target="1B5wOAiUGvlLQEjb0I8J-16">
          <mxGeometry width="50" height="50" relative="1" as="geometry">
            <mxPoint x="10" y="50" as="sourcePoint" />
            <mxPoint x="60" as="targetPoint" />
          </mxGeometry>
        </mxCell>
        <mxCell id="1B5wOAiUGvlLQEjb0I8J-18" value="" style="endArrow=none;html=1;rounded=0;exitX=0;exitY=0.5;exitDx=0;exitDy=0;entryX=1;entryY=0.5;entryDx=0;entryDy=0;" edge="1" parent="1B5wOAiUGvlLQEjb0I8J-22" source="1B5wOAiUGvlLQEjb0I8J-16" target="1B5wOAiUGvlLQEjb0I8J-16">
          <mxGeometry width="50" height="50" relative="1" as="geometry">
            <mxPoint x="10" y="50" as="sourcePoint" />
            <mxPoint x="60" as="targetPoint" />
          </mxGeometry>
        </mxCell>
        <mxCell id="1B5wOAiUGvlLQEjb0I8J-24" value="" style="group" vertex="1" connectable="0" parent="1">
          <mxGeometry x="340" y="200" width="20" height="20" as="geometry" />
        </mxCell>
        <mxCell id="1B5wOAiUGvlLQEjb0I8J-25" value="" style="ellipse;whiteSpace=wrap;html=1;" vertex="1" parent="1B5wOAiUGvlLQEjb0I8J-24">
          <mxGeometry width="20" height="20" as="geometry" />
        </mxCell>
        <mxCell id="1B5wOAiUGvlLQEjb0I8J-26" value="" style="endArrow=none;html=1;rounded=0;entryX=0.5;entryY=0;entryDx=0;entryDy=0;exitX=0.5;exitY=1;exitDx=0;exitDy=0;" edge="1" parent="1B5wOAiUGvlLQEjb0I8J-24" source="1B5wOAiUGvlLQEjb0I8J-25" target="1B5wOAiUGvlLQEjb0I8J-25">
          <mxGeometry width="50" height="50" relative="1" as="geometry">
            <mxPoint x="10" y="50" as="sourcePoint" />
            <mxPoint x="60" as="targetPoint" />
          </mxGeometry>
        </mxCell>
        <mxCell id="1B5wOAiUGvlLQEjb0I8J-27" value="" style="endArrow=none;html=1;rounded=0;exitX=0;exitY=0.5;exitDx=0;exitDy=0;entryX=1;entryY=0.5;entryDx=0;entryDy=0;" edge="1" parent="1B5wOAiUGvlLQEjb0I8J-24" source="1B5wOAiUGvlLQEjb0I8J-25" target="1B5wOAiUGvlLQEjb0I8J-25">
          <mxGeometry width="50" height="50" relative="1" as="geometry">
            <mxPoint x="10" y="50" as="sourcePoint" />
            <mxPoint x="60" as="targetPoint" />
          </mxGeometry>
        </mxCell>
        <mxCell id="1B5wOAiUGvlLQEjb0I8J-28" value="" style="group" vertex="1" connectable="0" parent="1">
          <mxGeometry x="400" y="200" width="20" height="20" as="geometry" />
        </mxCell>
        <mxCell id="1B5wOAiUGvlLQEjb0I8J-29" value="" style="ellipse;whiteSpace=wrap;html=1;" vertex="1" parent="1B5wOAiUGvlLQEjb0I8J-28">
          <mxGeometry width="20" height="20" as="geometry" />
        </mxCell>
        <mxCell id="1B5wOAiUGvlLQEjb0I8J-30" value="" style="endArrow=none;html=1;rounded=0;entryX=0.5;entryY=0;entryDx=0;entryDy=0;exitX=0.5;exitY=1;exitDx=0;exitDy=0;" edge="1" parent="1B5wOAiUGvlLQEjb0I8J-28" source="1B5wOAiUGvlLQEjb0I8J-29" target="1B5wOAiUGvlLQEjb0I8J-29">
          <mxGeometry width="50" height="50" relative="1" as="geometry">
            <mxPoint x="10" y="50" as="sourcePoint" />
            <mxPoint x="60" as="targetPoint" />
          </mxGeometry>
        </mxCell>
        <mxCell id="1B5wOAiUGvlLQEjb0I8J-31" value="" style="endArrow=none;html=1;rounded=0;exitX=0;exitY=0.5;exitDx=0;exitDy=0;entryX=1;entryY=0.5;entryDx=0;entryDy=0;" edge="1" parent="1B5wOAiUGvlLQEjb0I8J-28" source="1B5wOAiUGvlLQEjb0I8J-29" target="1B5wOAiUGvlLQEjb0I8J-29">
          <mxGeometry width="50" height="50" relative="1" as="geometry">
            <mxPoint x="10" y="50" as="sourcePoint" />
            <mxPoint x="60" as="targetPoint" />
          </mxGeometry>
        </mxCell>
        <mxCell id="1B5wOAiUGvlLQEjb0I8J-32" value="" style="group" vertex="1" connectable="0" parent="1">
          <mxGeometry x="460" y="200" width="20" height="20" as="geometry" />
        </mxCell>
        <mxCell id="1B5wOAiUGvlLQEjb0I8J-33" value="" style="ellipse;whiteSpace=wrap;html=1;" vertex="1" parent="1B5wOAiUGvlLQEjb0I8J-32">
          <mxGeometry width="20" height="20" as="geometry" />
        </mxCell>
        <mxCell id="1B5wOAiUGvlLQEjb0I8J-34" value="" style="endArrow=none;html=1;rounded=0;entryX=0.5;entryY=0;entryDx=0;entryDy=0;exitX=0.5;exitY=1;exitDx=0;exitDy=0;" edge="1" parent="1B5wOAiUGvlLQEjb0I8J-32" source="1B5wOAiUGvlLQEjb0I8J-33" target="1B5wOAiUGvlLQEjb0I8J-33">
          <mxGeometry width="50" height="50" relative="1" as="geometry">
            <mxPoint x="10" y="50" as="sourcePoint" />
            <mxPoint x="60" as="targetPoint" />
          </mxGeometry>
        </mxCell>
        <mxCell id="1B5wOAiUGvlLQEjb0I8J-35" value="" style="endArrow=none;html=1;rounded=0;exitX=0;exitY=0.5;exitDx=0;exitDy=0;entryX=1;entryY=0.5;entryDx=0;entryDy=0;" edge="1" parent="1B5wOAiUGvlLQEjb0I8J-32" source="1B5wOAiUGvlLQEjb0I8J-33" target="1B5wOAiUGvlLQEjb0I8J-33">
          <mxGeometry width="50" height="50" relative="1" as="geometry">
            <mxPoint x="10" y="50" as="sourcePoint" />
            <mxPoint x="60" as="targetPoint" />
          </mxGeometry>
        </mxCell>
        <mxCell id="1B5wOAiUGvlLQEjb0I8J-38" value="" style="endArrow=none;html=1;rounded=0;entryX=0.5;entryY=1;entryDx=0;entryDy=0;exitX=0.5;exitY=0;exitDx=0;exitDy=0;" edge="1" parent="1" source="1B5wOAiUGvlLQEjb0I8J-16" target="1B5wOAiUGvlLQEjb0I8J-5">
          <mxGeometry width="50" height="50" relative="1" as="geometry">
            <mxPoint x="370" y="240" as="sourcePoint" />
            <mxPoint x="420" y="190" as="targetPoint" />
          </mxGeometry>
        </mxCell>
        <mxCell id="1B5wOAiUGvlLQEjb0I8J-39" value="" style="endArrow=none;html=1;rounded=0;entryX=0.5;entryY=1;entryDx=0;entryDy=0;exitX=0.5;exitY=0;exitDx=0;exitDy=0;" edge="1" parent="1" source="1B5wOAiUGvlLQEjb0I8J-16" target="1B5wOAiUGvlLQEjb0I8J-6">
          <mxGeometry width="50" height="50" relative="1" as="geometry">
            <mxPoint x="270" y="200" as="sourcePoint" />
            <mxPoint x="293" y="107" as="targetPoint" />
          </mxGeometry>
        </mxCell>
        <mxCell id="1B5wOAiUGvlLQEjb0I8J-41" value="" style="endArrow=none;html=1;rounded=0;entryX=0;entryY=1;entryDx=0;entryDy=0;exitX=0.5;exitY=0;exitDx=0;exitDy=0;" edge="1" parent="1" source="1B5wOAiUGvlLQEjb0I8J-16" target="1B5wOAiUGvlLQEjb0I8J-7">
          <mxGeometry width="50" height="50" relative="1" as="geometry">
            <mxPoint x="227" y="213" as="sourcePoint" />
            <mxPoint x="340" y="110" as="targetPoint" />
          </mxGeometry>
        </mxCell>
        <mxCell id="1B5wOAiUGvlLQEjb0I8J-43" value="" style="endArrow=none;html=1;rounded=0;entryX=0;entryY=1;entryDx=0;entryDy=0;exitX=1;exitY=0;exitDx=0;exitDy=0;" edge="1" parent="1" source="1B5wOAiUGvlLQEjb0I8J-16" target="1B5wOAiUGvlLQEjb0I8J-8">
          <mxGeometry width="50" height="50" relative="1" as="geometry">
            <mxPoint x="227" y="213" as="sourcePoint" />
            <mxPoint x="373" y="107" as="targetPoint" />
          </mxGeometry>
        </mxCell>
        <mxCell id="1B5wOAiUGvlLQEjb0I8J-45" value="" style="endArrow=none;html=1;rounded=0;entryX=0;entryY=1;entryDx=0;entryDy=0;exitX=1;exitY=0;exitDx=0;exitDy=0;" edge="1" parent="1" source="1B5wOAiUGvlLQEjb0I8J-16" target="1B5wOAiUGvlLQEjb0I8J-9">
          <mxGeometry width="50" height="50" relative="1" as="geometry">
            <mxPoint x="227" y="213" as="sourcePoint" />
            <mxPoint x="413" y="107" as="targetPoint" />
          </mxGeometry>
        </mxCell>
        <mxCell id="1B5wOAiUGvlLQEjb0I8J-46" value="" style="endArrow=none;html=1;rounded=0;entryX=0;entryY=1;entryDx=0;entryDy=0;exitX=1;exitY=0;exitDx=0;exitDy=0;" edge="1" parent="1" source="1B5wOAiUGvlLQEjb0I8J-16" target="1B5wOAiUGvlLQEjb0I8J-10">
          <mxGeometry width="50" height="50" relative="1" as="geometry">
            <mxPoint x="227" y="213" as="sourcePoint" />
            <mxPoint x="453" y="107" as="targetPoint" />
          </mxGeometry>
        </mxCell>
        <mxCell id="1B5wOAiUGvlLQEjb0I8J-47" value="" style="endArrow=none;html=1;rounded=0;entryX=0;entryY=1;entryDx=0;entryDy=0;exitX=1;exitY=0;exitDx=0;exitDy=0;" edge="1" parent="1" source="1B5wOAiUGvlLQEjb0I8J-16" target="1B5wOAiUGvlLQEjb0I8J-11">
          <mxGeometry width="50" height="50" relative="1" as="geometry">
            <mxPoint x="227" y="213" as="sourcePoint" />
            <mxPoint x="493" y="107" as="targetPoint" />
          </mxGeometry>
        </mxCell>
        <mxCell id="1B5wOAiUGvlLQEjb0I8J-48" value="" style="endArrow=none;html=1;rounded=0;entryX=0;entryY=1;entryDx=0;entryDy=0;exitX=1;exitY=0;exitDx=0;exitDy=0;" edge="1" parent="1" source="1B5wOAiUGvlLQEjb0I8J-16" target="1B5wOAiUGvlLQEjb0I8J-12">
          <mxGeometry width="50" height="50" relative="1" as="geometry">
            <mxPoint x="370" y="240" as="sourcePoint" />
            <mxPoint x="420" y="190" as="targetPoint" />
          </mxGeometry>
        </mxCell>
        <mxCell id="1B5wOAiUGvlLQEjb0I8J-50" value="" style="endArrow=none;html=1;rounded=0;entryX=1;entryY=1;entryDx=0;entryDy=0;exitX=0;exitY=0;exitDx=0;exitDy=0;" edge="1" parent="1" source="1B5wOAiUGvlLQEjb0I8J-25" target="1B5wOAiUGvlLQEjb0I8J-2">
          <mxGeometry width="50" height="50" relative="1" as="geometry">
            <mxPoint x="370" y="240" as="sourcePoint" />
            <mxPoint x="420" y="190" as="targetPoint" />
          </mxGeometry>
        </mxCell>
        <mxCell id="1B5wOAiUGvlLQEjb0I8J-51" value="" style="endArrow=none;html=1;rounded=0;entryX=0.5;entryY=1;entryDx=0;entryDy=0;exitX=0;exitY=0;exitDx=0;exitDy=0;" edge="1" parent="1" source="1B5wOAiUGvlLQEjb0I8J-25" target="1B5wOAiUGvlLQEjb0I8J-3">
          <mxGeometry width="50" height="50" relative="1" as="geometry">
            <mxPoint x="370" y="240" as="sourcePoint" />
            <mxPoint x="420" y="190" as="targetPoint" />
          </mxGeometry>
        </mxCell>
        <mxCell id="1B5wOAiUGvlLQEjb0I8J-52" value="" style="endArrow=none;html=1;rounded=0;entryX=0.5;entryY=1;entryDx=0;entryDy=0;exitX=0;exitY=0;exitDx=0;exitDy=0;" edge="1" parent="1" source="1B5wOAiUGvlLQEjb0I8J-25" target="1B5wOAiUGvlLQEjb0I8J-4">
          <mxGeometry width="50" height="50" relative="1" as="geometry">
            <mxPoint x="370" y="240" as="sourcePoint" />
            <mxPoint x="420" y="190" as="targetPoint" />
          </mxGeometry>
        </mxCell>
        <mxCell id="1B5wOAiUGvlLQEjb0I8J-53" value="" style="endArrow=none;html=1;rounded=0;entryX=0;entryY=1;entryDx=0;entryDy=0;exitX=1;exitY=0;exitDx=0;exitDy=0;" edge="1" parent="1" source="1B5wOAiUGvlLQEjb0I8J-25" target="1B5wOAiUGvlLQEjb0I8J-8">
          <mxGeometry width="50" height="50" relative="1" as="geometry">
            <mxPoint x="370" y="240" as="sourcePoint" />
            <mxPoint x="420" y="190" as="targetPoint" />
          </mxGeometry>
        </mxCell>
        <mxCell id="1B5wOAiUGvlLQEjb0I8J-54" value="" style="endArrow=none;html=1;rounded=0;entryX=0;entryY=1;entryDx=0;entryDy=0;exitX=1;exitY=0;exitDx=0;exitDy=0;" edge="1" parent="1" source="1B5wOAiUGvlLQEjb0I8J-25" target="1B5wOAiUGvlLQEjb0I8J-9">
          <mxGeometry width="50" height="50" relative="1" as="geometry">
            <mxPoint x="370" y="240" as="sourcePoint" />
            <mxPoint x="420" y="190" as="targetPoint" />
          </mxGeometry>
        </mxCell>
        <mxCell id="1B5wOAiUGvlLQEjb0I8J-55" value="" style="endArrow=none;html=1;rounded=0;entryX=0;entryY=1;entryDx=0;entryDy=0;exitX=1;exitY=0;exitDx=0;exitDy=0;" edge="1" parent="1" source="1B5wOAiUGvlLQEjb0I8J-25" target="1B5wOAiUGvlLQEjb0I8J-10">
          <mxGeometry width="50" height="50" relative="1" as="geometry">
            <mxPoint x="287" y="213" as="sourcePoint" />
            <mxPoint x="453" y="107" as="targetPoint" />
          </mxGeometry>
        </mxCell>
        <mxCell id="1B5wOAiUGvlLQEjb0I8J-56" value="" style="endArrow=none;html=1;rounded=0;entryX=0;entryY=1;entryDx=0;entryDy=0;exitX=1;exitY=0;exitDx=0;exitDy=0;" edge="1" parent="1" source="1B5wOAiUGvlLQEjb0I8J-25" target="1B5wOAiUGvlLQEjb0I8J-11">
          <mxGeometry width="50" height="50" relative="1" as="geometry">
            <mxPoint x="370" y="240" as="sourcePoint" />
            <mxPoint x="420" y="190" as="targetPoint" />
          </mxGeometry>
        </mxCell>
        <mxCell id="1B5wOAiUGvlLQEjb0I8J-57" value="" style="endArrow=none;html=1;rounded=0;entryX=0;entryY=1;entryDx=0;entryDy=0;exitX=1;exitY=0;exitDx=0;exitDy=0;" edge="1" parent="1" source="1B5wOAiUGvlLQEjb0I8J-25" target="1B5wOAiUGvlLQEjb0I8J-13">
          <mxGeometry width="50" height="50" relative="1" as="geometry">
            <mxPoint x="370" y="240" as="sourcePoint" />
            <mxPoint x="420" y="190" as="targetPoint" />
          </mxGeometry>
        </mxCell>
        <mxCell id="1B5wOAiUGvlLQEjb0I8J-58" value="" style="endArrow=none;html=1;rounded=0;entryX=1;entryY=1;entryDx=0;entryDy=0;exitX=0;exitY=0;exitDx=0;exitDy=0;" edge="1" parent="1" source="1B5wOAiUGvlLQEjb0I8J-29" target="1B5wOAiUGvlLQEjb0I8J-1">
          <mxGeometry width="50" height="50" relative="1" as="geometry">
            <mxPoint x="370" y="240" as="sourcePoint" />
            <mxPoint x="420" y="190" as="targetPoint" />
          </mxGeometry>
        </mxCell>
        <mxCell id="1B5wOAiUGvlLQEjb0I8J-59" value="" style="endArrow=none;html=1;rounded=0;entryX=0.5;entryY=1;entryDx=0;entryDy=0;exitX=0;exitY=0;exitDx=0;exitDy=0;" edge="1" parent="1" source="1B5wOAiUGvlLQEjb0I8J-29" target="1B5wOAiUGvlLQEjb0I8J-3">
          <mxGeometry width="50" height="50" relative="1" as="geometry">
            <mxPoint x="310" y="220" as="sourcePoint" />
            <mxPoint x="420" y="190" as="targetPoint" />
          </mxGeometry>
        </mxCell>
        <mxCell id="1B5wOAiUGvlLQEjb0I8J-60" value="" style="endArrow=none;html=1;rounded=0;entryX=0.5;entryY=1;entryDx=0;entryDy=0;exitX=0;exitY=0;exitDx=0;exitDy=0;" edge="1" parent="1" source="1B5wOAiUGvlLQEjb0I8J-29" target="1B5wOAiUGvlLQEjb0I8J-4">
          <mxGeometry width="50" height="50" relative="1" as="geometry">
            <mxPoint x="370" y="240" as="sourcePoint" />
            <mxPoint x="420" y="190" as="targetPoint" />
          </mxGeometry>
        </mxCell>
        <mxCell id="1B5wOAiUGvlLQEjb0I8J-61" value="" style="endArrow=none;html=1;rounded=0;entryX=0.5;entryY=1;entryDx=0;entryDy=0;exitX=0.5;exitY=0;exitDx=0;exitDy=0;" edge="1" parent="1" source="1B5wOAiUGvlLQEjb0I8J-29" target="1B5wOAiUGvlLQEjb0I8J-6">
          <mxGeometry width="50" height="50" relative="1" as="geometry">
            <mxPoint x="330" y="200" as="sourcePoint" />
            <mxPoint x="420" y="190" as="targetPoint" />
          </mxGeometry>
        </mxCell>
        <mxCell id="1B5wOAiUGvlLQEjb0I8J-62" value="" style="endArrow=none;html=1;rounded=0;entryX=0.5;entryY=1;entryDx=0;entryDy=0;exitX=0.5;exitY=0;exitDx=0;exitDy=0;" edge="1" parent="1" source="1B5wOAiUGvlLQEjb0I8J-29" target="1B5wOAiUGvlLQEjb0I8J-7">
          <mxGeometry width="50" height="50" relative="1" as="geometry">
            <mxPoint x="340" y="230" as="sourcePoint" />
            <mxPoint x="390" y="180" as="targetPoint" />
          </mxGeometry>
        </mxCell>
        <mxCell id="1B5wOAiUGvlLQEjb0I8J-63" value="" style="endArrow=none;html=1;rounded=0;entryX=0;entryY=1;entryDx=0;entryDy=0;exitX=1;exitY=0;exitDx=0;exitDy=0;" edge="1" parent="1" source="1B5wOAiUGvlLQEjb0I8J-29" target="1B5wOAiUGvlLQEjb0I8J-10">
          <mxGeometry width="50" height="50" relative="1" as="geometry">
            <mxPoint x="340" y="230" as="sourcePoint" />
            <mxPoint x="390" y="180" as="targetPoint" />
          </mxGeometry>
        </mxCell>
        <mxCell id="1B5wOAiUGvlLQEjb0I8J-64" value="" style="endArrow=none;html=1;rounded=0;entryX=0;entryY=1;entryDx=0;entryDy=0;exitX=1;exitY=0;exitDx=0;exitDy=0;" edge="1" parent="1" source="1B5wOAiUGvlLQEjb0I8J-29" target="1B5wOAiUGvlLQEjb0I8J-11">
          <mxGeometry width="50" height="50" relative="1" as="geometry">
            <mxPoint x="340" y="230" as="sourcePoint" />
            <mxPoint x="390" y="180" as="targetPoint" />
          </mxGeometry>
        </mxCell>
        <mxCell id="1B5wOAiUGvlLQEjb0I8J-65" value="" style="endArrow=none;html=1;rounded=0;entryX=0;entryY=1;entryDx=0;entryDy=0;exitX=1;exitY=0;exitDx=0;exitDy=0;" edge="1" parent="1" source="1B5wOAiUGvlLQEjb0I8J-29" target="1B5wOAiUGvlLQEjb0I8J-14">
          <mxGeometry width="50" height="50" relative="1" as="geometry">
            <mxPoint x="340" y="210" as="sourcePoint" />
            <mxPoint x="390" y="180" as="targetPoint" />
          </mxGeometry>
        </mxCell>
        <mxCell id="1B5wOAiUGvlLQEjb0I8J-66" value="" style="endArrow=none;html=1;rounded=0;entryX=0;entryY=1;entryDx=0;entryDy=0;exitX=1;exitY=0;exitDx=0;exitDy=0;" edge="1" parent="1" source="1B5wOAiUGvlLQEjb0I8J-33" target="1B5wOAiUGvlLQEjb0I8J-15">
          <mxGeometry width="50" height="50" relative="1" as="geometry">
            <mxPoint x="410" y="210" as="sourcePoint" />
            <mxPoint x="410" y="120" as="targetPoint" />
          </mxGeometry>
        </mxCell>
        <mxCell id="1B5wOAiUGvlLQEjb0I8J-67" value="" style="endArrow=none;html=1;rounded=0;entryX=1;entryY=1;entryDx=0;entryDy=0;exitX=0;exitY=0;exitDx=0;exitDy=0;" edge="1" parent="1" source="1B5wOAiUGvlLQEjb0I8J-33" target="1B5wOAiUGvlLQEjb0I8J-1">
          <mxGeometry width="50" height="50" relative="1" as="geometry">
            <mxPoint x="380" y="210" as="sourcePoint" />
            <mxPoint x="400" y="100" as="targetPoint" />
          </mxGeometry>
        </mxCell>
        <mxCell id="1B5wOAiUGvlLQEjb0I8J-68" value="" style="endArrow=none;html=1;rounded=0;entryX=1;entryY=1;entryDx=0;entryDy=0;exitX=0;exitY=0;exitDx=0;exitDy=0;" edge="1" parent="1" source="1B5wOAiUGvlLQEjb0I8J-33" target="1B5wOAiUGvlLQEjb0I8J-2">
          <mxGeometry width="50" height="50" relative="1" as="geometry">
            <mxPoint x="320" y="180" as="sourcePoint" />
            <mxPoint x="370" y="130" as="targetPoint" />
          </mxGeometry>
        </mxCell>
        <mxCell id="1B5wOAiUGvlLQEjb0I8J-69" value="" style="endArrow=none;html=1;rounded=0;entryX=0.5;entryY=1;entryDx=0;entryDy=0;exitX=0;exitY=0;exitDx=0;exitDy=0;" edge="1" parent="1" source="1B5wOAiUGvlLQEjb0I8J-33" target="1B5wOAiUGvlLQEjb0I8J-4">
          <mxGeometry width="50" height="50" relative="1" as="geometry">
            <mxPoint x="320" y="180" as="sourcePoint" />
            <mxPoint x="370" y="130" as="targetPoint" />
          </mxGeometry>
        </mxCell>
        <mxCell id="1B5wOAiUGvlLQEjb0I8J-70" value="" style="endArrow=none;html=1;rounded=0;entryX=0.5;entryY=1;entryDx=0;entryDy=0;exitX=0;exitY=0;exitDx=0;exitDy=0;" edge="1" parent="1" source="1B5wOAiUGvlLQEjb0I8J-33" target="1B5wOAiUGvlLQEjb0I8J-5">
          <mxGeometry width="50" height="50" relative="1" as="geometry">
            <mxPoint x="320" y="180" as="sourcePoint" />
            <mxPoint x="370" y="130" as="targetPoint" />
          </mxGeometry>
        </mxCell>
        <mxCell id="1B5wOAiUGvlLQEjb0I8J-71" value="" style="endArrow=none;html=1;rounded=0;entryX=0.5;entryY=1;entryDx=0;entryDy=0;exitX=0.5;exitY=0;exitDx=0;exitDy=0;" edge="1" parent="1" source="1B5wOAiUGvlLQEjb0I8J-33" target="1B5wOAiUGvlLQEjb0I8J-7">
          <mxGeometry width="50" height="50" relative="1" as="geometry">
            <mxPoint x="400" y="200" as="sourcePoint" />
            <mxPoint x="370" y="130" as="targetPoint" />
          </mxGeometry>
        </mxCell>
        <mxCell id="1B5wOAiUGvlLQEjb0I8J-72" value="" style="endArrow=none;html=1;rounded=0;entryX=0.5;entryY=1;entryDx=0;entryDy=0;exitX=0.5;exitY=0;exitDx=0;exitDy=0;" edge="1" parent="1" source="1B5wOAiUGvlLQEjb0I8J-33" target="1B5wOAiUGvlLQEjb0I8J-9">
          <mxGeometry width="50" height="50" relative="1" as="geometry">
            <mxPoint x="390" y="200" as="sourcePoint" />
            <mxPoint x="370" y="160" as="targetPoint" />
          </mxGeometry>
        </mxCell>
        <mxCell id="1B5wOAiUGvlLQEjb0I8J-73" value="" style="endArrow=none;html=1;rounded=0;entryX=0;entryY=1;entryDx=0;entryDy=0;exitX=0.5;exitY=0;exitDx=0;exitDy=0;" edge="1" parent="1" source="1B5wOAiUGvlLQEjb0I8J-33" target="1B5wOAiUGvlLQEjb0I8J-11">
          <mxGeometry width="50" height="50" relative="1" as="geometry">
            <mxPoint x="320" y="160" as="sourcePoint" />
            <mxPoint x="370" y="110" as="targetPoint" />
          </mxGeometry>
        </mxCell>
        <mxCell id="1B5wOAiUGvlLQEjb0I8J-74" value="" style="group" vertex="1" connectable="0" parent="1">
          <mxGeometry x="520" y="200" width="20" height="20" as="geometry" />
        </mxCell>
        <mxCell id="1B5wOAiUGvlLQEjb0I8J-75" value="" style="ellipse;whiteSpace=wrap;html=1;" vertex="1" parent="1B5wOAiUGvlLQEjb0I8J-74">
          <mxGeometry width="20" height="20" as="geometry" />
        </mxCell>
        <mxCell id="1B5wOAiUGvlLQEjb0I8J-76" value="" style="endArrow=none;html=1;rounded=0;entryX=0.5;entryY=0;entryDx=0;entryDy=0;exitX=0.5;exitY=1;exitDx=0;exitDy=0;" edge="1" parent="1B5wOAiUGvlLQEjb0I8J-74" source="1B5wOAiUGvlLQEjb0I8J-75" target="1B5wOAiUGvlLQEjb0I8J-75">
          <mxGeometry width="50" height="50" relative="1" as="geometry">
            <mxPoint x="10" y="50" as="sourcePoint" />
            <mxPoint x="60" as="targetPoint" />
          </mxGeometry>
        </mxCell>
        <mxCell id="1B5wOAiUGvlLQEjb0I8J-77" value="" style="endArrow=none;html=1;rounded=0;exitX=0;exitY=0.5;exitDx=0;exitDy=0;entryX=1;entryY=0.5;entryDx=0;entryDy=0;" edge="1" parent="1B5wOAiUGvlLQEjb0I8J-74" source="1B5wOAiUGvlLQEjb0I8J-75" target="1B5wOAiUGvlLQEjb0I8J-75">
          <mxGeometry width="50" height="50" relative="1" as="geometry">
            <mxPoint x="10" y="50" as="sourcePoint" />
            <mxPoint x="60" as="targetPoint" />
          </mxGeometry>
        </mxCell>
        <mxCell id="1B5wOAiUGvlLQEjb0I8J-78" value="" style="ellipse;whiteSpace=wrap;html=1;" vertex="1" parent="1">
          <mxGeometry x="720" y="80" width="20" height="20" as="geometry" />
        </mxCell>
        <mxCell id="1B5wOAiUGvlLQEjb0I8J-79" value="" style="endArrow=none;html=1;rounded=0;entryX=0;entryY=1;entryDx=0;entryDy=0;exitX=1;exitY=0;exitDx=0;exitDy=0;" edge="1" parent="1" source="1B5wOAiUGvlLQEjb0I8J-75" target="1B5wOAiUGvlLQEjb0I8J-78">
          <mxGeometry width="50" height="50" relative="1" as="geometry">
            <mxPoint x="300" y="130" as="sourcePoint" />
            <mxPoint x="350" y="80" as="targetPoint" />
          </mxGeometry>
        </mxCell>
        <mxCell id="1B5wOAiUGvlLQEjb0I8J-81" value="" style="endArrow=none;html=1;rounded=0;entryX=1;entryY=1;entryDx=0;entryDy=0;exitX=0;exitY=0;exitDx=0;exitDy=0;" edge="1" parent="1" source="1B5wOAiUGvlLQEjb0I8J-75" target="1B5wOAiUGvlLQEjb0I8J-1">
          <mxGeometry width="50" height="50" relative="1" as="geometry">
            <mxPoint x="300" y="130" as="sourcePoint" />
            <mxPoint x="350" y="80" as="targetPoint" />
          </mxGeometry>
        </mxCell>
        <mxCell id="1B5wOAiUGvlLQEjb0I8J-83" value="" style="endArrow=none;html=1;rounded=0;entryX=1;entryY=1;entryDx=0;entryDy=0;exitX=0;exitY=0;exitDx=0;exitDy=0;" edge="1" parent="1" source="1B5wOAiUGvlLQEjb0I8J-75" target="1B5wOAiUGvlLQEjb0I8J-2">
          <mxGeometry width="50" height="50" relative="1" as="geometry">
            <mxPoint x="440" y="200" as="sourcePoint" />
            <mxPoint x="267" y="107" as="targetPoint" />
          </mxGeometry>
        </mxCell>
        <mxCell id="1B5wOAiUGvlLQEjb0I8J-84" value="" style="endArrow=none;html=1;rounded=0;entryX=0.5;entryY=1;entryDx=0;entryDy=0;exitX=0;exitY=0;exitDx=0;exitDy=0;" edge="1" parent="1" source="1B5wOAiUGvlLQEjb0I8J-75" target="1B5wOAiUGvlLQEjb0I8J-5">
          <mxGeometry width="50" height="50" relative="1" as="geometry">
            <mxPoint x="460" y="200" as="sourcePoint" />
            <mxPoint x="420" y="100" as="targetPoint" />
          </mxGeometry>
        </mxCell>
        <mxCell id="1B5wOAiUGvlLQEjb0I8J-85" value="" style="endArrow=none;html=1;rounded=0;exitX=0.5;exitY=1;exitDx=0;exitDy=0;entryX=0.5;entryY=0;entryDx=0;entryDy=0;" edge="1" parent="1" source="1B5wOAiUGvlLQEjb0I8J-11" target="1B5wOAiUGvlLQEjb0I8J-75">
          <mxGeometry width="50" height="50" relative="1" as="geometry">
            <mxPoint x="570" y="190" as="sourcePoint" />
            <mxPoint x="460" y="200" as="targetPoint" />
          </mxGeometry>
        </mxCell>
        <mxCell id="1B5wOAiUGvlLQEjb0I8J-87" value="&lt;svg style=&quot;vertical-align: -0.375ex;&quot; xmlns:xlink=&quot;http://www.w3.org/1999/xlink&quot; viewBox=&quot;0 -443 921.6 608.6&quot; role=&quot;img&quot; height=&quot;1.377ex&quot; width=&quot;2.085ex&quot; xmlns=&quot;http://www.w3.org/2000/svg&quot;&gt;&lt;defs&gt;&lt;path d=&quot;M173 380Q173 405 154 405Q130 405 104 376T61 287Q60 286 59 284T58 281T56 279T53 278T49 278T41 278H27Q21 284 21 287Q21 294 29 316T53 368T97 419T160 441Q202 441 225 417T249 361Q249 344 246 335Q246 329 231 291T200 202T182 113Q182 86 187 69Q200 26 250 26Q287 26 319 60T369 139T398 222T409 277Q409 300 401 317T383 343T365 361T357 383Q357 405 376 424T417 443Q436 443 451 425T467 367Q467 340 455 284T418 159T347 40T241 -11Q177 -11 139 22Q102 54 102 117Q102 148 110 181T151 298Q173 362 173 380Z&quot; id=&quot;MJX-1-TEX-I-1D463&quot;&gt;&lt;/path&gt;&lt;path d=&quot;M96 585Q152 666 249 666Q297 666 345 640T423 548Q460 465 460 320Q460 165 417 83Q397 41 362 16T301 -15T250 -22Q224 -22 198 -16T137 16T82 83Q39 165 39 320Q39 494 96 585ZM321 597Q291 629 250 629Q208 629 178 597Q153 571 145 525T137 333Q137 175 145 125T181 46Q209 16 250 16Q290 16 318 46Q347 76 354 130T362 333Q362 478 354 524T321 597Z&quot; id=&quot;MJX-1-TEX-N-30&quot;&gt;&lt;/path&gt;&lt;/defs&gt;&lt;g transform=&quot;scale(1,-1)&quot; stroke-width=&quot;0&quot; fill=&quot;currentColor&quot; stroke=&quot;currentColor&quot;&gt;&lt;g data-mml-node=&quot;math&quot;&gt;&lt;g data-mml-node=&quot;msub&quot;&gt;&lt;g data-mml-node=&quot;mi&quot;&gt;&lt;use xlink:href=&quot;#MJX-1-TEX-I-1D463&quot; data-c=&quot;1D463&quot;&gt;&lt;/use&gt;&lt;/g&gt;&lt;g transform=&quot;translate(518,-150) scale(0.707)&quot; data-mml-node=&quot;mn&quot;&gt;&lt;use xlink:href=&quot;#MJX-1-TEX-N-30&quot; data-c=&quot;30&quot;&gt;&lt;/use&gt;&lt;/g&gt;&lt;/g&gt;&lt;/g&gt;&lt;/g&gt;&lt;/svg&gt;" style="text;html=1;align=center;verticalAlign=middle;whiteSpace=wrap;rounded=0;" vertex="1" parent="1">
          <mxGeometry x="110" y="60" width="40" height="20" as="geometry" />
        </mxCell>
        <mxCell id="1B5wOAiUGvlLQEjb0I8J-89" value="$$v_1$$" style="text;html=1;align=center;verticalAlign=middle;whiteSpace=wrap;rounded=0;" vertex="1" parent="1">
          <mxGeometry x="150" y="60" width="40" height="20" as="geometry" />
        </mxCell>
        <mxCell id="1B5wOAiUGvlLQEjb0I8J-90" value="$$v_2$$" style="text;html=1;align=center;verticalAlign=middle;whiteSpace=wrap;rounded=0;" vertex="1" parent="1">
          <mxGeometry x="190" y="60" width="40" height="20" as="geometry" />
        </mxCell>
        <mxCell id="1B5wOAiUGvlLQEjb0I8J-91" value="$$v_3$$" style="text;html=1;align=center;verticalAlign=middle;whiteSpace=wrap;rounded=0;" vertex="1" parent="1">
          <mxGeometry x="230" y="60" width="40" height="20" as="geometry" />
        </mxCell>
        <mxCell id="1B5wOAiUGvlLQEjb0I8J-92" value="$$v_4$$" style="text;html=1;align=center;verticalAlign=middle;whiteSpace=wrap;rounded=0;" vertex="1" parent="1">
          <mxGeometry x="270" y="60" width="40" height="20" as="geometry" />
        </mxCell>
        <mxCell id="1B5wOAiUGvlLQEjb0I8J-93" value="$$v_5$$" style="text;html=1;align=center;verticalAlign=middle;whiteSpace=wrap;rounded=0;" vertex="1" parent="1">
          <mxGeometry x="310" y="60" width="40" height="20" as="geometry" />
        </mxCell>
        <mxCell id="1B5wOAiUGvlLQEjb0I8J-94" value="$$v_6$$" style="text;html=1;align=center;verticalAlign=middle;whiteSpace=wrap;rounded=0;" vertex="1" parent="1">
          <mxGeometry x="350" y="60" width="40" height="20" as="geometry" />
        </mxCell>
        <mxCell id="1B5wOAiUGvlLQEjb0I8J-95" value="$$v_7$$" style="text;html=1;align=center;verticalAlign=middle;whiteSpace=wrap;rounded=0;" vertex="1" parent="1">
          <mxGeometry x="390" y="60" width="40" height="20" as="geometry" />
        </mxCell>
        <mxCell id="1B5wOAiUGvlLQEjb0I8J-96" value="$$v_8$$" style="text;html=1;align=center;verticalAlign=middle;whiteSpace=wrap;rounded=0;" vertex="1" parent="1">
          <mxGeometry x="430" y="60" width="40" height="20" as="geometry" />
        </mxCell>
        <mxCell id="1B5wOAiUGvlLQEjb0I8J-97" value="$$v_9$$" style="text;html=1;align=center;verticalAlign=middle;whiteSpace=wrap;rounded=0;" vertex="1" parent="1">
          <mxGeometry x="470" y="60" width="40" height="20" as="geometry" />
        </mxCell>
        <mxCell id="1B5wOAiUGvlLQEjb0I8J-98" value="$$v_{10}$$" style="text;html=1;align=center;verticalAlign=middle;whiteSpace=wrap;rounded=0;" vertex="1" parent="1">
          <mxGeometry x="510" y="60" width="40" height="20" as="geometry" />
        </mxCell>
        <mxCell id="1B5wOAiUGvlLQEjb0I8J-99" value="$$v_{11}$$" style="text;html=1;align=center;verticalAlign=middle;whiteSpace=wrap;rounded=0;" vertex="1" parent="1">
          <mxGeometry x="550" y="60" width="40" height="20" as="geometry" />
        </mxCell>
        <mxCell id="1B5wOAiUGvlLQEjb0I8J-100" value="$$v_{12}$$" style="text;html=1;align=center;verticalAlign=middle;whiteSpace=wrap;rounded=0;" vertex="1" parent="1">
          <mxGeometry x="590" y="60" width="40" height="20" as="geometry" />
        </mxCell>
        <mxCell id="1B5wOAiUGvlLQEjb0I8J-101" value="$$v_{13}$$" style="text;html=1;align=center;verticalAlign=middle;whiteSpace=wrap;rounded=0;" vertex="1" parent="1">
          <mxGeometry x="630" y="60" width="40" height="20" as="geometry" />
        </mxCell>
        <mxCell id="1B5wOAiUGvlLQEjb0I8J-102" value="$$v_{14}$$" style="text;html=1;align=center;verticalAlign=middle;whiteSpace=wrap;rounded=0;" vertex="1" parent="1">
          <mxGeometry x="670" y="60" width="40" height="20" as="geometry" />
        </mxCell>
        <mxCell id="1B5wOAiUGvlLQEjb0I8J-103" value="$$v_{15}$$" style="text;html=1;align=center;verticalAlign=middle;whiteSpace=wrap;rounded=0;" vertex="1" parent="1">
          <mxGeometry x="710" y="60" width="40" height="20" as="geometry" />
        </mxCell>
        <mxCell id="1B5wOAiUGvlLQEjb0I8J-105" value="$$c_0$$" style="text;html=1;align=center;verticalAlign=middle;whiteSpace=wrap;rounded=0;" vertex="1" parent="1">
          <mxGeometry x="270" y="220" width="40" height="20" as="geometry" />
        </mxCell>
        <mxCell id="1B5wOAiUGvlLQEjb0I8J-106" value="$$c_1$$" style="text;html=1;align=center;verticalAlign=middle;whiteSpace=wrap;rounded=0;" vertex="1" parent="1">
          <mxGeometry x="330" y="220" width="40" height="20" as="geometry" />
        </mxCell>
        <mxCell id="1B5wOAiUGvlLQEjb0I8J-107" value="$$c_2$$" style="text;html=1;align=center;verticalAlign=middle;whiteSpace=wrap;rounded=0;" vertex="1" parent="1">
          <mxGeometry x="390" y="220" width="40" height="20" as="geometry" />
        </mxCell>
        <mxCell id="1B5wOAiUGvlLQEjb0I8J-110" value="$$c_3$$" style="text;html=1;align=center;verticalAlign=middle;whiteSpace=wrap;rounded=0;" vertex="1" parent="1">
          <mxGeometry x="450" y="220" width="40" height="20" as="geometry" />
        </mxCell>
        <mxCell id="1B5wOAiUGvlLQEjb0I8J-111" value="$$c_4$$" style="text;html=1;align=center;verticalAlign=middle;whiteSpace=wrap;rounded=0;" vertex="1" parent="1">
          <mxGeometry x="510" y="220" width="40" height="20" as="geometry" />
        </mxCell>
        <mxCell id="1B5wOAiUGvlLQEjb0I8J-112" value="" style="endArrow=none;html=1;rounded=0;entryX=1;entryY=1;entryDx=0;entryDy=0;exitX=0;exitY=0;exitDx=0;exitDy=0;" edge="1" parent="1" source="1B5wOAiUGvlLQEjb0I8J-75" target="1B5wOAiUGvlLQEjb0I8J-3">
          <mxGeometry width="50" height="50" relative="1" as="geometry">
            <mxPoint x="520" y="210" as="sourcePoint" />
            <mxPoint x="390" y="170" as="targetPoint" />
          </mxGeometry>
        </mxCell>
        <mxCell id="1B5wOAiUGvlLQEjb0I8J-113" value="" style="endArrow=none;html=1;rounded=0;entryX=0.5;entryY=1;entryDx=0;entryDy=0;exitX=0;exitY=0;exitDx=0;exitDy=0;" edge="1" parent="1" source="1B5wOAiUGvlLQEjb0I8J-75" target="1B5wOAiUGvlLQEjb0I8J-6">
          <mxGeometry width="50" height="50" relative="1" as="geometry">
            <mxPoint x="590" y="210" as="sourcePoint" />
            <mxPoint x="307" y="107" as="targetPoint" />
          </mxGeometry>
        </mxCell>
        <mxCell id="1B5wOAiUGvlLQEjb0I8J-114" value="" style="endArrow=none;html=1;rounded=0;entryX=0.5;entryY=1;entryDx=0;entryDy=0;exitX=0;exitY=0;exitDx=0;exitDy=0;" edge="1" parent="1" source="1B5wOAiUGvlLQEjb0I8J-75" target="1B5wOAiUGvlLQEjb0I8J-8">
          <mxGeometry width="50" height="50" relative="1" as="geometry">
            <mxPoint x="510" y="210" as="sourcePoint" />
            <mxPoint x="340" y="110" as="targetPoint" />
          </mxGeometry>
        </mxCell>
      </root>
    </mxGraphModel>
  </diagram>
</mxfile>
